<?xml version="1.0" encoding="UTF-8" standalone="no"?>
<svg
   xmlns:dc="http://purl.org/dc/elements/1.1/"
   xmlns:cc="http://creativecommons.org/ns#"
   xmlns:rdf="http://www.w3.org/1999/02/22-rdf-syntax-ns#"
   xmlns:svg="http://www.w3.org/2000/svg"
   xmlns="http://www.w3.org/2000/svg"
   xmlns:sodipodi="http://sodipodi.sourceforge.net/DTD/sodipodi-0.dtd"
   xmlns:inkscape="http://www.inkscape.org/namespaces/inkscape"
   version="1.1"
   id="svg2"
   viewBox="0 0 101.88349 35.328803"
   height="9.9705734mm"
   width="28.753784mm"
   inkscape:version="0.91 r13725"
   sodipodi:docname="file_shapes.svg">
  <sodipodi:namedview
     pagecolor="#ffffff"
     bordercolor="#666666"
     borderopacity="1"
     objecttolerance="10"
     gridtolerance="10"
     guidetolerance="10"
     inkscape:pageopacity="0"
     inkscape:pageshadow="2"
     inkscape:window-width="640"
     inkscape:window-height="480"
     id="namedview10"
     showgrid="false"
     fit-margin-left="1"
     fit-margin-top="1"
     fit-margin-right="1"
     fit-margin-bottom="1"
     inkscape:zoom="0.22425739"
     inkscape:cx="205.01912"
     inkscape:cy="-80.903385"
     inkscape:window-x="0"
     inkscape:window-y="0"
     inkscape:window-maximized="0"
     inkscape:current-layer="svg2" />
  <defs
     id="defs4" />
  <metadata
     id="metadata7">
    <rdf:RDF>
      <cc:Work
         rdf:about="">
        <dc:format>image/svg+xml</dc:format>
        <dc:type
           rdf:resource="http://purl.org/dc/dcmitype/StillImage" />
        <dc:title></dc:title>
      </cc:Work>
    </rdf:RDF>
  </metadata>
  <g
     id="layer1"
     transform="translate(-167.02812,-409.94891)">
    <g
       id="text3336"
       style="font-style:normal;font-weight:normal;font-size:40px;line-height:125%;font-family:sans-serif;letter-spacing:0px;word-spacing:0px;fill:#000000;fill-opacity:1;stroke:none;stroke-width:1px;stroke-linecap:butt;stroke-linejoin:miter;stroke-opacity:1">
      <path
         id="path10"
         d="m 196.21143,440.93362 -9.28,-26.48 -6.72,0 -9.64,26.48 1.8,0 3.12,-8.36 10.72,0 3.08,8.36 6.92,0 z m -2.44,-1.76 -3.32,0 -8.08,-22.96 3.32,0 8.08,22.96 z m -8.2,-8.36 -9.44,0 4.76,-13.28 0.08,0 4.6,13.28 z"
         inkscape:connector-curvature="0" />
      <path
         id="path12"
         d="m 228.06361,438.25784 -4.60937,3.47657 q -1.60156,-1.17188 -2.24609,-2.40235 -0.625,-1.23047 -0.625,-3.84765 l 0.11718,-4.0625 q 0,-2.51954 -2.32422,-4.33594 l -3.82812,1.52344 0,1.44531 q 0,1.875 -0.48828,3.71094 -0.48828,1.8164 -1.3086,2.91015 -0.82031,1.07422 -2.67578,2.26563 l -4.375,2.79297 -2.87109,-3.04688 -1.32813,0.83984 -0.48828,-0.54687 4.57032,-2.89063 2.87109,3.00782 q 0.97656,-0.46875 1.40625,-0.9961 0.42969,-0.52734 0.70312,-1.85547 0.29297,-1.34765 0.29297,-3.32031 l 0,-9.86328 q 0,-3.53516 -0.35156,-5.17578 -0.35156,-1.64063 -1.42578,-2.44141 -1.07422,-0.80078 -2.5,-0.80078 -1.71875,0 -3.125,1.25 -1.38672,1.23047 -1.38672,2.71485 0,0.9375 0.58594,1.73828 0.60547,0.80078 1.89453,1.8164 2.48047,1.99219 2.48047,4.49219 0,2.91016 -3.28125,4.92188 l -0.17578,-0.64454 q 1.44531,-0.78125 1.44531,-1.83593 0,-0.72266 -0.42969,-1.34766 -0.41015,-0.625 -1.48437,-1.66016 -1.64063,-1.5039 -2.36328,-2.67578 -0.72266,-1.1914 -0.72266,-2.40234 0,-1.28906 0.87891,-3.08594 0.89843,-1.8164 2.63671,-2.92969 1.73829,-1.13281 4.16016,-1.13281 2.46094,0 3.82813,0.91797 1.36718,0.89844 2.30468,2.94922 5.625,-2.57813 7.83203,-4.23828 3.4375,1.91406 4.27735,3.28125 0.83984,1.34765 0.83984,2.51953 0,3.75 -5.11719,6.11328 1.26954,0.80078 2.05079,2.59766 0.80078,1.77734 0.80078,3.61328 l -0.0977,3.4375 q 0,2.16797 0.37109,2.83203 0.39063,0.64453 1.19141,0.64453 0.70313,0 1.71875,-0.80078 l 0.37109,0.52734 z M 214.54799,427.7305 q 5.66406,-2.20703 7.10937,-3.55469 1.44532,-1.36719 1.44532,-3.32031 0,-1.89453 -1.07422,-2.98828 -1.05469,-1.09375 -2.89063,-1.09375 -2.16797,0 -5.07812,1.71875 0.48828,1.71875 0.48828,3.28125 l 0,5.95703 z"
         inkscape:connector-curvature="0" />
      <path
         id="path14"
         d="m 265.3683,414.89847 q -2.20703,3.71094 -5.46875,3.71094 -1.71875,0 -5.13672,-1.44532 -2.36328,-1.01562 -3.51562,-1.26953 -1.13281,-0.27344 -2.03125,-0.27344 -2.53906,0 -5.46875,1.6211 -2.91016,1.60156 -4.84375,4.0039 -1.9336,2.38282 -1.9336,4.33594 0,1.25 0.72266,2.10938 0.74219,0.83984 1.79688,0.83984 2.38281,0 4.64843,-2.94922 2.28516,-2.94922 2.28516,-7.05078 0,-0.42969 -0.15625,-0.80078 l 0.39062,-0.23438 q 0.91797,1.46485 0.91797,4.23829 0,3.28125 -2.1875,5.48828 -2.1875,2.1875 -5.29297,2.1875 -1.89453,0 -3.00781,-0.9961 -1.11328,-0.99609 -1.11328,-2.55859 0,-2.59766 2.38281,-5.35156 2.38282,-2.75391 6.19141,-4.51172 3.80859,-1.77735 7.46094,-1.77735 2.14843,0 5.95703,0.80079 2.83203,0.60546 4.0039,0.60546 1.85547,0 2.89063,-1.05468 l 0.50781,0.33203 z M 254.62611,429.293 q 1.05469,-3.67188 2.8711,-3.67188 0.8789,0 0.8789,0.95704 0,1.93359 -2.67578,3.16406 -0.13672,2.69531 -1.21093,4.39453 l -2.26563,0.23437 q 0.17578,-0.42968 0.78125,-1.40625 1.05469,-1.71875 1.36719,-2.79296 -1.28906,0.19531 -2.22656,0.19531 -1.9336,4.43359 -3.92579,6.5039 -1.97265,2.05079 -4.86328,3.1836 -2.87109,1.11328 -5.82031,1.11328 -2.71484,0 -4.43359,-1.32813 -1.71875,-1.34765 -1.71875,-3.41796 0,-1.6211 0.97656,-2.73438 0.97656,-1.11328 2.34375,-1.11328 0.91797,0 1.50391,0.625 0.60546,0.60547 0.60546,1.54297 0,0.97656 -0.52734,1.38672 -0.50781,0.39062 -2.44141,1.15234 -0.60546,0.23438 -0.70312,0.37109 -0.0781,0.13672 -0.0781,0.35157 0,0.99609 1.23047,1.71875 1.25,0.72265 2.92969,0.72265 3.04688,0 5.07813,-2.1875 2.03125,-2.20703 4.88281,-7.63672 -3.16406,0.29297 -6.5625,2.63672 -0.33203,-0.23437 -0.41016,-0.5664 3.53516,-2.79297 7.32422,-2.94922 3.67188,-7.92969 8.88672,-10.9375 l 0.35156,0.41015 q -1.67969,2.32422 -3.08594,6.75782 -0.74218,2.32422 -1.23046,3.55468 l 0.27343,0 q 0.58594,0 1.89453,-0.23437 z"
         inkscape:connector-curvature="0" />
    </g>
  </g>
</svg>
